{
	"asset":{
		"generator":"Khronos glTF Blender I/O v4.5.47",
		"version":"2.0"
	},
	"scene":0,
	"scenes":[
		{
			"name":"Scene",
			"nodes":[
				0
			]
		}
	],
	"nodes":[
		{
			"mesh":0,
			"name":"+Z"
		}
	],
	"materials":[
		{
			"doubleSided":true,
			"emissiveFactor":[
				0,
				0,
				0.10000240951780093
			],
			"name":"axeZ",
			"pbrMetallicRoughness":{
				"baseColorFactor":[
					0,
					0,
					1,
					1
				],
				"metallicFactor":0,
				"roughnessFactor":0.5
			}
		},
		{
			"doubleSided":true,
			"emissiveFactor":[
				0,
				0.10000240951780093,
				0
			],
			"name":"axeY",
			"pbrMetallicRoughness":{
				"baseColorFactor":[
					0,
					1,
					0,
					1
				],
				"metallicFactor":0,
				"roughnessFactor":0.5
			}
		},
		{
			"doubleSided":true,
			"emissiveFactor":[
				0.10000000149011612,
				0,
				0
			],
			"name":"axeX",
			"pbrMetallicRoughness":{
				"baseColorFactor":[
					1,
					0,
					0,
					1
				],
				"metallicFactor":0,
				"roughnessFactor":0.5
			}
		}
	],
	"meshes":[
		{
			"name":"Cylinder",
			"primitives":[
				{
					"attributes":{
						"POSITION":0,
						"NORMAL":1,
						"TEXCOORD_0":2,
						"TANGENT":3
					},
					"indices":4,
					"material":0
				},
				{
					"attributes":{
						"POSITION":5,
						"NORMAL":6,
						"TEXCOORD_0":7,
						"TANGENT":8
					},
					"indices":9,
					"material":1
				},
				{
					"attributes":{
						"POSITION":10,
						"NORMAL":11,
						"TEXCOORD_0":12,
						"TANGENT":13
					},
					"indices":14,
					"material":2
				}
			]
		}
	],
	"accessors":[
		{
			"bufferView":0,
			"componentType":5126,
			"count":202,
			"max":[
				3000,
				100000,
				3000
			],
			"min":[
				-3000,
				0,
				-3000
			],
			"type":"VEC3"
		},
		{
			"bufferView":1,
			"componentType":5126,
			"count":202,
			"type":"VEC3"
		},
		{
			"bufferView":2,
			"componentType":5126,
			"count":202,
			"type":"VEC2"
		},
		{
			"bufferView":3,
			"componentType":5126,
			"count":202,
			"type":"VEC4"
		},
		{
			"bufferView":4,
			"componentType":5123,
			"count":372,
			"type":"SCALAR"
		},
		{
			"bufferView":5,
			"componentType":5126,
			"count":203,
			"max":[
				3000,
				3000,
				0.00013113416207488626
			],
			"min":[
				-3000,
				-3000.00439453125,
				-100000
			],
			"type":"VEC3"
		},
		{
			"bufferView":6,
			"componentType":5126,
			"count":203,
			"type":"VEC3"
		},
		{
			"bufferView":7,
			"componentType":5126,
			"count":203,
			"type":"VEC2"
		},
		{
			"bufferView":8,
			"componentType":5126,
			"count":203,
			"type":"VEC4"
		},
		{
			"bufferView":9,
			"componentType":5123,
			"count":372,
			"type":"SCALAR"
		},
		{
			"bufferView":10,
			"componentType":5126,
			"count":200,
			"max":[
				100000,
				3000,
				3000
			],
			"min":[
				-0.00013113416207488626,
				-3000.00439453125,
				-3000
			],
			"type":"VEC3"
		},
		{
			"bufferView":11,
			"componentType":5126,
			"count":200,
			"type":"VEC3"
		},
		{
			"bufferView":12,
			"componentType":5126,
			"count":200,
			"type":"VEC2"
		},
		{
			"bufferView":13,
			"componentType":5126,
			"count":200,
			"type":"VEC4"
		},
		{
			"bufferView":14,
			"componentType":5123,
			"count":372,
			"type":"SCALAR"
		}
	],
	"bufferViews":[
		{
			"buffer":0,
			"byteLength":2424,
			"byteOffset":0,
			"target":34962
		},
		{
			"buffer":0,
			"byteLength":2424,
			"byteOffset":2424,
			"target":34962
		},
		{
			"buffer":0,
			"byteLength":1616,
			"byteOffset":4848,
			"target":34962
		},
		{
			"buffer":0,
			"byteLength":3232,
			"byteOffset":6464,
			"target":34962
		},
		{
			"buffer":0,
			"byteLength":744,
			"byteOffset":9696,
			"target":34963
		},
		{
			"buffer":0,
			"byteLength":2436,
			"byteOffset":10440,
			"target":34962
		},
		{
			"buffer":0,
			"byteLength":2436,
			"byteOffset":12876,
			"target":34962
		},
		{
			"buffer":0,
			"byteLength":1624,
			"byteOffset":15312,
			"target":34962
		},
		{
			"buffer":0,
			"byteLength":3248,
			"byteOffset":16936,
			"target":34962
		},
		{
			"buffer":0,
			"byteLength":744,
			"byteOffset":20184,
			"target":34963
		},
		{
			"buffer":0,
			"byteLength":2400,
			"byteOffset":20928,
			"target":34962
		},
		{
			"buffer":0,
			"byteLength":2400,
			"byteOffset":23328,
			"target":34962
		},
		{
			"buffer":0,
			"byteLength":1600,
			"byteOffset":25728,
			"target":34962
		},
		{
			"buffer":0,
			"byteLength":3200,
			"byteOffset":27328,
			"target":34962
		},
		{
			"buffer":0,
			"byteLength":744,
			"byteOffset":30528,
			"target":34963
		}
	],
	"buffers":[
		{
			"byteLength":31272,
			"uri":"AxesBlenderYup.bin"
		}
	]
}
