{
	"asset":{
		"generator":"Khronos glTF Blender I/O v4.5.47",
		"version":"2.0"
	},
	"scene":0,
	"scenes":[
		{
			"name":"Scene",
			"nodes":[
				0,
				1,
				2
			]
		}
	],
	"nodes":[
		{
			"mesh":0,
			"name":"NormMatrix"
		},
		{
			"mesh":1,
			"name":"PopMatrix"
		},
		{
			"mesh":2,
			"name":"LimitMatrix"
		}
	],
	"materials":[
		{
			"doubleSided":true,
			"name":"Material.004",
			"pbrMetallicRoughness":{
				"baseColorFactor":[
					0.13958005607128143,
					0.04599467292428017,
					0.8001565933227539,
					1
				],
				"metallicFactor":0,
				"roughnessFactor":0.5
			}
		},
		{
			"alphaMode":"BLEND",
			"doubleSided":true,
			"name":"Material.006",
			"pbrMetallicRoughness":{
				"baseColorFactor":[
					0,
					0.8003931045532227,
					0.0017265924252569675,
					0.10000000149011612
				],
				"metallicFactor":0,
				"roughnessFactor":0.5
			}
		},
		{
			"alphaMode":"BLEND",
			"doubleSided":true,
			"name":"Material.008",
			"pbrMetallicRoughness":{
				"baseColorFactor":[
					0.8004740476608276,
					0.0034159664064645767,
					0,
					0.10000000149011612
				],
				"metallicFactor":0,
				"roughnessFactor":0.5
			}
		}
	],
	"meshes":[
		{
			"name":"Cube.001",
			"primitives":[
				{
					"attributes":{
						"POSITION":0,
						"NORMAL":1,
						"TEXCOORD_0":2,
						"TANGENT":3
					},
					"indices":4,
					"material":0
				}
			]
		},
		{
			"name":"Cube.002",
			"primitives":[
				{
					"attributes":{
						"POSITION":5,
						"NORMAL":6,
						"TEXCOORD_0":7,
						"TANGENT":8
					},
					"indices":9,
					"material":1
				}
			]
		},
		{
			"name":"Cube.003",
			"primitives":[
				{
					"attributes":{
						"POSITION":10,
						"NORMAL":11,
						"TEXCOORD_0":12,
						"TANGENT":13
					},
					"indices":14,
					"material":2
				}
			]
		}
	],
	"accessors":[
		{
			"bufferView":0,
			"componentType":5126,
			"count":6144,
			"max":[
				1601084.625,
				1601084.625,
				1601084.625
			],
			"min":[
				-1601084.625,
				-1601084.625,
				-1601084.625
			],
			"type":"VEC3"
		},
		{
			"bufferView":1,
			"componentType":5126,
			"count":6144,
			"type":"VEC3"
		},
		{
			"bufferView":2,
			"componentType":5126,
			"count":6144,
			"type":"VEC2"
		},
		{
			"bufferView":3,
			"componentType":5126,
			"count":6144,
			"type":"VEC4"
		},
		{
			"bufferView":4,
			"componentType":5123,
			"count":9216,
			"type":"SCALAR"
		},
		{
			"bufferView":5,
			"componentType":5126,
			"count":6144,
			"max":[
				1682719.375,
				1682719.375,
				1682719.375
			],
			"min":[
				-1682719.375,
				-1682719.375,
				-1682719.375
			],
			"type":"VEC3"
		},
		{
			"bufferView":6,
			"componentType":5126,
			"count":6144,
			"type":"VEC3"
		},
		{
			"bufferView":7,
			"componentType":5126,
			"count":6144,
			"type":"VEC2"
		},
		{
			"bufferView":8,
			"componentType":5126,
			"count":6144,
			"type":"VEC4"
		},
		{
			"bufferView":9,
			"componentType":5123,
			"count":9216,
			"type":"SCALAR"
		},
		{
			"bufferView":10,
			"componentType":5126,
			"count":6144,
			"max":[
				4066443.75,
				4066443.75,
				4066443.75
			],
			"min":[
				-4066443.75,
				-4066443.75,
				-4066443.75
			],
			"type":"VEC3"
		},
		{
			"bufferView":11,
			"componentType":5126,
			"count":6144,
			"type":"VEC3"
		},
		{
			"bufferView":12,
			"componentType":5126,
			"count":6144,
			"type":"VEC2"
		},
		{
			"bufferView":13,
			"componentType":5126,
			"count":6144,
			"type":"VEC4"
		},
		{
			"bufferView":14,
			"componentType":5123,
			"count":9216,
			"type":"SCALAR"
		}
	],
	"bufferViews":[
		{
			"buffer":0,
			"byteLength":73728,
			"byteOffset":0,
			"target":34962
		},
		{
			"buffer":0,
			"byteLength":73728,
			"byteOffset":73728,
			"target":34962
		},
		{
			"buffer":0,
			"byteLength":49152,
			"byteOffset":147456,
			"target":34962
		},
		{
			"buffer":0,
			"byteLength":98304,
			"byteOffset":196608,
			"target":34962
		},
		{
			"buffer":0,
			"byteLength":18432,
			"byteOffset":294912,
			"target":34963
		},
		{
			"buffer":0,
			"byteLength":73728,
			"byteOffset":313344,
			"target":34962
		},
		{
			"buffer":0,
			"byteLength":73728,
			"byteOffset":387072,
			"target":34962
		},
		{
			"buffer":0,
			"byteLength":49152,
			"byteOffset":460800,
			"target":34962
		},
		{
			"buffer":0,
			"byteLength":98304,
			"byteOffset":509952,
			"target":34962
		},
		{
			"buffer":0,
			"byteLength":18432,
			"byteOffset":608256,
			"target":34963
		},
		{
			"buffer":0,
			"byteLength":73728,
			"byteOffset":626688,
			"target":34962
		},
		{
			"buffer":0,
			"byteLength":73728,
			"byteOffset":700416,
			"target":34962
		},
		{
			"buffer":0,
			"byteLength":49152,
			"byteOffset":774144,
			"target":34962
		},
		{
			"buffer":0,
			"byteLength":98304,
			"byteOffset":823296,
			"target":34962
		},
		{
			"buffer":0,
			"byteLength":18432,
			"byteOffset":921600,
			"target":34963
		}
	],
	"buffers":[
		{
			"byteLength":940032,
			"uri":"Matrix.bin"
		}
	]
}
