{
	"asset":{
		"generator":"Khronos glTF Blender I/O v4.5.47",
		"version":"2.0"
	},
	"scene":0,
	"scenes":[
		{
			"name":"Scene",
			"nodes":[
				0
			]
		}
	],
	"nodes":[
		{
			"mesh":0,
			"name":"NormMatrix"
		}
	],
	"materials":[
		{
			"doubleSided":true,
			"emissiveFactor":[
				0.5,
				0.5,
				0.5
			],
			"emissiveTexture":{
				"index":0
			},
			"name":"Material.004",
			"pbrMetallicRoughness":{
				"baseColorTexture":{
					"index":1
				},
				"roughnessFactor":0
			}
		}
	],
	"meshes":[
		{
			"name":"Mesh",
			"primitives":[
				{
					"attributes":{
						"POSITION":0,
						"NORMAL":1,
						"TEXCOORD_0":2,
						"TANGENT":3
					},
					"indices":4,
					"material":0
				}
			]
		}
	],
	"textures":[
		{
			"sampler":0,
			"source":0
		},
		{
			"sampler":0,
			"source":0
		}
	],
	"images":[
		{
			"mimeType":"image/png",
			"name":"Matrix_coord_HQ",
			"uri":"Matrix_coord_HQ.png"
		}
	],
	"accessors":[
		{
			"bufferView":0,
			"componentType":5126,
			"count":98304,
			"max":[
				1595899.875,
				1595899.875,
				1595899.875
			],
			"min":[
				-1595899.875,
				-1595899.875,
				-1595899.875
			],
			"type":"VEC3"
		},
		{
			"bufferView":1,
			"componentType":5126,
			"count":98304,
			"type":"VEC3"
		},
		{
			"bufferView":2,
			"componentType":5126,
			"count":98304,
			"type":"VEC2"
		},
		{
			"bufferView":3,
			"componentType":5126,
			"count":98304,
			"type":"VEC4"
		},
		{
			"bufferView":4,
			"componentType":5125,
			"count":147456,
			"type":"SCALAR"
		}
	],
	"bufferViews":[
		{
			"buffer":0,
			"byteLength":1179648,
			"byteOffset":0,
			"target":34962
		},
		{
			"buffer":0,
			"byteLength":1179648,
			"byteOffset":1179648,
			"target":34962
		},
		{
			"buffer":0,
			"byteLength":786432,
			"byteOffset":2359296,
			"target":34962
		},
		{
			"buffer":0,
			"byteLength":1572864,
			"byteOffset":3145728,
			"target":34962
		},
		{
			"buffer":0,
			"byteLength":589824,
			"byteOffset":4718592,
			"target":34963
		}
	],
	"samplers":[
		{
			"magFilter":9729,
			"minFilter":9987
		}
	],
	"buffers":[
		{
			"byteLength":5308416,
			"uri":"NromMatrix.bin"
		}
	]
}
