{
	"asset":{
		"generator":"Khronos glTF Blender I/O v4.5.47",
		"version":"2.0"
	},
	"scene":0,
	"scenes":[
		{
			"name":"Scene",
			"nodes":[
				0
			]
		}
	],
	"nodes":[
		{
			"mesh":0,
			"name":"+Z",
			"scale":[
				0.8945993781089783,
				0.8945993781089783,
				0.8945993781089783
			],
			"translation":[
				0,
				0.21080124378204346,
				0
			]
		}
	],
	"materials":[
		{
			"doubleSided":true,
			"emissiveFactor":[
				0,
				0,
				0.10000240951780093
			],
			"name":"axeZ",
			"pbrMetallicRoughness":{
				"baseColorFactor":[
					0,
					0,
					1,
					1
				],
				"metallicFactor":0,
				"roughnessFactor":0.5
			}
		},
		{
			"doubleSided":true,
			"emissiveFactor":[
				0,
				0.10000240951780093,
				0
			],
			"name":"axeY",
			"pbrMetallicRoughness":{
				"baseColorFactor":[
					0,
					1,
					0,
					1
				],
				"metallicFactor":0,
				"roughnessFactor":0.5
			}
		},
		{
			"doubleSided":true,
			"emissiveFactor":[
				0.10000000149011612,
				0,
				0
			],
			"name":"axeX",
			"pbrMetallicRoughness":{
				"baseColorFactor":[
					1,
					0,
					0,
					1
				],
				"metallicFactor":0,
				"roughnessFactor":0.5
			}
		}
	],
	"meshes":[
		{
			"name":"Cylinder",
			"primitives":[
				{
					"attributes":{
						"POSITION":0,
						"NORMAL":1,
						"TEXCOORD_0":2,
						"TANGENT":3
					},
					"indices":4,
					"material":0
				},
				{
					"attributes":{
						"POSITION":5,
						"NORMAL":6,
						"TEXCOORD_0":7,
						"TANGENT":8
					},
					"indices":9,
					"material":1
				},
				{
					"attributes":{
						"POSITION":10,
						"NORMAL":11,
						"TEXCOORD_0":12,
						"TANGENT":13
					},
					"indices":14,
					"material":2
				}
			]
		}
	],
	"accessors":[
		{
			"bufferView":0,
			"componentType":5126,
			"count":238,
			"max":[
				46660.40625,
				1842635.625,
				46660.40625
			],
			"min":[
				-46660.40625,
				-1819753.875,
				-46660.40625
			],
			"type":"VEC3"
		},
		{
			"bufferView":1,
			"componentType":5126,
			"count":238,
			"type":"VEC3"
		},
		{
			"bufferView":2,
			"componentType":5126,
			"count":238,
			"type":"VEC2"
		},
		{
			"bufferView":3,
			"componentType":5126,
			"count":238,
			"type":"VEC4"
		},
		{
			"bufferView":4,
			"componentType":5123,
			"count":408,
			"type":"SCALAR"
		},
		{
			"bufferView":5,
			"componentType":5126,
			"count":237,
			"max":[
				46660.40625,
				46662.40625,
				1819755.875
			],
			"min":[
				-46660.40625,
				-46658.40625,
				-1842670.5
			],
			"type":"VEC3"
		},
		{
			"bufferView":6,
			"componentType":5126,
			"count":237,
			"type":"VEC3"
		},
		{
			"bufferView":7,
			"componentType":5126,
			"count":237,
			"type":"VEC2"
		},
		{
			"bufferView":8,
			"componentType":5126,
			"count":237,
			"type":"VEC4"
		},
		{
			"bufferView":9,
			"componentType":5123,
			"count":408,
			"type":"SCALAR"
		},
		{
			"bufferView":10,
			"componentType":5126,
			"count":253,
			"max":[
				1842670.5,
				46662.40625,
				46660.40625
			],
			"min":[
				-1819755.875,
				-46658.40625,
				-46660.40625
			],
			"type":"VEC3"
		},
		{
			"bufferView":11,
			"componentType":5126,
			"count":253,
			"type":"VEC3"
		},
		{
			"bufferView":12,
			"componentType":5126,
			"count":253,
			"type":"VEC2"
		},
		{
			"bufferView":13,
			"componentType":5126,
			"count":253,
			"type":"VEC4"
		},
		{
			"bufferView":14,
			"componentType":5123,
			"count":408,
			"type":"SCALAR"
		}
	],
	"bufferViews":[
		{
			"buffer":0,
			"byteLength":2856,
			"byteOffset":0,
			"target":34962
		},
		{
			"buffer":0,
			"byteLength":2856,
			"byteOffset":2856,
			"target":34962
		},
		{
			"buffer":0,
			"byteLength":1904,
			"byteOffset":5712,
			"target":34962
		},
		{
			"buffer":0,
			"byteLength":3808,
			"byteOffset":7616,
			"target":34962
		},
		{
			"buffer":0,
			"byteLength":816,
			"byteOffset":11424,
			"target":34963
		},
		{
			"buffer":0,
			"byteLength":2844,
			"byteOffset":12240,
			"target":34962
		},
		{
			"buffer":0,
			"byteLength":2844,
			"byteOffset":15084,
			"target":34962
		},
		{
			"buffer":0,
			"byteLength":1896,
			"byteOffset":17928,
			"target":34962
		},
		{
			"buffer":0,
			"byteLength":3792,
			"byteOffset":19824,
			"target":34962
		},
		{
			"buffer":0,
			"byteLength":816,
			"byteOffset":23616,
			"target":34963
		},
		{
			"buffer":0,
			"byteLength":3036,
			"byteOffset":24432,
			"target":34962
		},
		{
			"buffer":0,
			"byteLength":3036,
			"byteOffset":27468,
			"target":34962
		},
		{
			"buffer":0,
			"byteLength":2024,
			"byteOffset":30504,
			"target":34962
		},
		{
			"buffer":0,
			"byteLength":4048,
			"byteOffset":32528,
			"target":34962
		},
		{
			"buffer":0,
			"byteLength":816,
			"byteOffset":36576,
			"target":34963
		}
	],
	"buffers":[
		{
			"byteLength":37392,
			"uri":"BlenderAxes.bin"
		}
	]
}
